<svg width="357" height="242" viewBox="0 0 357 242" fill="none" xmlns="http://www.w3.org/2000/svg">
<path d="M192.738 48.6453C166.778 82.0094 166.778 82.0094 170.994 87.6125C173.213 90.4141 184.306 105.186 195.4 120.467L215.591 147.719L222.247 140.842L229.125 133.711L211.375 109.77C194.291 87.1031 191.406 80.9906 195.622 77.9344C196.731 77.1703 205.606 66.2188 215.369 53.9938L233.341 31.3266L226.241 23.4313L218.919 15.2812L192.738 48.6453Z" fill="white"/>
<path d="M106.206 19.611C105.541 20.6297 104.875 49.1547 104.875 83.2829V145.172H112.641H120.406L120.85 104.931L121.516 64.436L149.25 102.384C164.559 123.014 178.759 142.625 180.978 145.681L184.972 151.284L191.406 143.644L197.841 136.258L180.756 113.081C171.438 100.347 152.356 74.3688 138.378 55.2672C114.194 21.9032 109.091 16.3 106.206 19.611Z" fill="white"/>
<path d="M15 209H4.22727V174.091H15.4773C18.8636 174.091 21.7614 174.79 24.1705 176.188C26.5795 177.574 28.4261 179.568 29.7102 182.17C30.9943 184.761 31.6364 187.864 31.6364 191.477C31.6364 195.114 30.9886 198.244 29.6932 200.869C28.3977 203.483 26.5114 205.494 24.0341 206.903C21.5568 208.301 18.5455 209 15 209ZM8.45455 205.25H14.7273C17.6136 205.25 20.0057 204.693 21.9034 203.58C23.8011 202.466 25.2159 200.881 26.1477 198.824C27.0795 196.767 27.5455 194.318 27.5455 191.477C27.5455 188.659 27.0852 186.233 26.1648 184.199C25.2443 182.153 23.8693 180.585 22.0398 179.494C20.2102 178.392 17.9318 177.841 15.2045 177.841H8.45455V205.25ZM38.7273 209V174.091H59.7955V177.841H42.9545V189.636H58.7045V193.386H42.9545V205.25H60.0682V209H38.7273ZM68.8466 174.091L79.2102 203.477H79.6193L89.983 174.091H94.4148L81.5966 209H77.233L64.4148 174.091H68.8466ZM99.8523 209V174.091H120.92V177.841H104.08V189.636H119.83V193.386H104.08V205.25H121.193V209H99.8523ZM128.54 209V174.091H132.767V205.25H148.994V209H128.54ZM183.635 191.545C183.635 195.227 182.97 198.409 181.641 201.091C180.311 203.773 178.487 205.841 176.169 207.295C173.851 208.75 171.203 209.477 168.226 209.477C165.249 209.477 162.601 208.75 160.283 207.295C157.964 205.841 156.141 203.773 154.811 201.091C153.482 198.409 152.817 195.227 152.817 191.545C152.817 187.864 153.482 184.682 154.811 182C156.141 179.318 157.964 177.25 160.283 175.795C162.601 174.341 165.249 173.614 168.226 173.614C171.203 173.614 173.851 174.341 176.169 175.795C178.487 177.25 180.311 179.318 181.641 182C182.97 184.682 183.635 187.864 183.635 191.545ZM179.544 191.545C179.544 188.523 179.038 185.972 178.027 183.892C177.027 181.812 175.669 180.239 173.953 179.17C172.249 178.102 170.339 177.568 168.226 177.568C166.112 177.568 164.197 178.102 162.482 179.17C160.777 180.239 159.419 181.812 158.408 183.892C157.408 185.972 156.908 188.523 156.908 191.545C156.908 194.568 157.408 197.119 158.408 199.199C159.419 201.278 160.777 202.852 162.482 203.92C164.197 204.989 166.112 205.523 168.226 205.523C170.339 205.523 172.249 204.989 173.953 203.92C175.669 202.852 177.027 201.278 178.027 199.199C179.038 197.119 179.544 194.568 179.544 191.545ZM190.743 209V174.091H202.538C205.277 174.091 207.516 174.585 209.254 175.574C211.004 176.551 212.3 177.875 213.141 179.545C213.982 181.216 214.402 183.08 214.402 185.136C214.402 187.193 213.982 189.062 213.141 190.744C212.311 192.426 211.027 193.767 209.288 194.767C207.55 195.756 205.322 196.25 202.607 196.25H194.152V192.5H202.47C204.345 192.5 205.851 192.176 206.987 191.528C208.124 190.881 208.947 190.006 209.459 188.903C209.982 187.79 210.243 186.534 210.243 185.136C210.243 183.739 209.982 182.489 209.459 181.386C208.947 180.284 208.118 179.42 206.97 178.795C205.822 178.159 204.3 177.841 202.402 177.841H194.97V209H190.743ZM221.212 174.091H226.257L238.121 203.068H238.53L250.393 174.091H255.439V209H251.484V182.477H251.143L240.234 209H236.416L225.507 182.477H225.166V209H221.212V174.091ZM263.915 209V174.091H284.983V177.841H268.142V189.636H283.892V193.386H268.142V205.25H285.256V209H263.915ZM320.284 174.091V209H316.193L297.17 181.591H296.83V209H292.602V174.091H296.693L315.784 201.568H316.125V174.091H320.284ZM326.834 177.841V174.091H353.016V177.841H342.038V209H337.811V177.841H326.834Z" fill="white"/>
</svg>
