<svg width="85" height="85" viewBox="0 0 85 85" fill="none" xmlns="http://www.w3.org/2000/svg">
<path d="M57.9062 25.3672C42.3672 42.7656 42.3672 42.7656 44.8906 45.6875C46.2187 47.1484 52.8594 54.8516 59.5 62.8203L71.5859 77.0312L75.5703 73.4453L79.6875 69.7266L69.0625 57.2422C58.8359 45.4219 57.1094 42.2344 59.6328 40.6406C60.2969 40.2422 65.6094 34.5312 71.4531 28.1562L82.2109 16.3359L77.9609 12.2188L73.5781 7.96875L57.9062 25.3672Z" fill="white"/>
<path d="M6.10938 10.2266C5.71094 10.7578 5.3125 25.6328 5.3125 43.4297V75.7031H9.96094H14.6094L14.875 54.7188L15.2734 33.6016L31.875 53.3906C41.0391 64.1484 49.5391 74.375 50.8672 75.9688L53.2578 78.8906L57.1094 74.9063L60.9609 71.0547L50.7344 58.9688C45.1563 52.3281 33.7344 38.7813 25.3672 28.8203C10.8906 11.4219 7.83594 8.50001 6.10938 10.2266Z" fill="white"/>
</svg>
