<svg width="93" height="119" viewBox="0 0 93 119" fill="none" xmlns="http://www.w3.org/2000/svg">
<path d="M35.5578 107.308H13.8526C10.9743 107.308 8.21392 106.087 6.17866 103.913C4.1434 101.74 3 98.7917 3 95.7179V14.5897C3 11.516 4.1434 8.56806 6.17866 6.39456C8.21392 4.22106 10.9743 3 13.8526 3H57.2631C60.1414 3 62.9018 4.22106 64.937 6.39456C66.9723 8.56806 68.1157 11.516 68.1157 14.5897V52.2564M30.1315 8.79487H40.9842M35.5578 84.1282V84.1862M73.5474 107.308C70.6691 107.308 67.9087 106.087 65.8735 103.913C63.8382 101.74 62.6948 98.7917 62.6948 95.7179C62.6948 92.6442 63.8382 89.6963 65.8735 87.5228C67.9087 85.3493 70.6691 84.1282 73.5474 84.1282M73.5474 107.308C76.4257 107.308 79.1861 106.087 81.2214 103.913C83.2566 101.74 84.4 98.7917 84.4 95.7179C84.4 92.6442 83.2566 89.6963 81.2214 87.5228C79.1861 85.3493 76.4257 84.1282 73.5474 84.1282M73.5474 107.308V116M73.5474 84.1282V75.4359M89.9946 85.5769L82.9458 89.9231M64.1545 101.513L57.1003 105.859M57.1003 85.5769L64.1545 89.9231M82.9458 101.513L90 105.859" stroke="#B53540" stroke-width="6" stroke-linecap="round" stroke-linejoin="round"/>
</svg>
