<svg width="133" height="133" viewBox="0 0 133 133" fill="none" xmlns="http://www.w3.org/2000/svg">
<path d="M58.2157 0.637253C57.7085 1.13597 57.4549 1.99487 56.9477 5.12572C56.5814 7.25912 56.1587 9.72501 56.0178 10.5839L55.736 12.1355L53.6508 12.6065C51.0021 13.1883 47.1981 14.4074 44.6621 15.488L42.6896 16.3192L38.7447 12.468C34.6871 8.53363 33.8417 7.9795 32.6301 8.61675C31.3057 9.30942 21.1053 16.7071 20.7108 17.2612C20.4854 17.5937 20.2881 18.0647 20.2881 18.3418C20.2881 19.0067 25.8392 29.8954 26.5718 30.6712C27.6989 31.8903 29.7278 31.2253 30.2631 29.4798C30.404 29.0642 29.7278 27.4849 28.0371 24.1047C26.7127 21.4726 25.6419 19.2284 25.6983 19.1175C25.7547 18.979 27.4735 17.6768 29.5305 16.2084L33.3064 13.5208L37.1386 17.2612C39.2519 19.3115 41.3089 21.0847 41.7034 21.1955C42.2106 21.3064 43.0559 21.0847 44.5212 20.4198C48.5506 18.6465 52.721 17.2889 56.215 16.624C58.5256 16.2084 59.3146 15.8482 59.6809 15.1555C59.85 14.823 60.329 12.4957 60.7235 9.97437C61.1462 7.45307 61.5407 5.18113 61.597 4.90407C61.7379 4.48846 62.2169 4.43306 66.5 4.43306C71.2339 4.43306 71.2903 4.43306 71.4311 5.0426C71.5157 5.40279 71.882 7.67473 72.2765 10.1129C72.671 12.5511 73.1218 14.823 73.2909 15.1555C73.6854 15.9036 74.4462 16.1806 77.4612 16.7625C80.5044 17.372 84.872 18.7851 88.0561 20.2258C89.8595 21.0293 90.7894 21.3064 91.2966 21.1955C91.6911 21.0847 93.7481 19.3115 95.8614 17.2612L99.7218 13.4931L103.329 16.0698C105.301 17.5106 107.048 18.7574 107.217 18.8959C107.358 19.0344 106.513 21.057 104.991 24.0493C102.145 29.7569 102.145 29.4521 104.766 32.2228C106.992 34.5501 109.161 37.487 111.162 40.8395C112.092 42.3357 113.106 43.7487 113.473 43.9704C114.036 44.3583 114.6 44.3028 119.052 43.6656C121.757 43.2777 124.237 42.9452 124.547 42.9452C124.997 42.9452 125.307 43.6379 126.519 47.406C127.308 49.8442 127.928 51.8944 127.872 51.9221C127.815 51.9776 125.73 53.0304 123.222 54.3049C120.686 55.5794 118.432 56.8262 118.178 57.131C117.728 57.602 117.728 57.9899 118.066 62.0628C118.376 65.7477 118.376 67.2439 118.066 70.9566C117.699 75.2234 117.699 75.4173 118.235 75.8884C118.517 76.1931 120.799 77.4399 123.279 78.7144C125.758 79.9612 127.815 81.0141 127.872 81.0695C127.928 81.0972 127.308 83.1475 126.519 85.5857C125.307 89.3538 124.997 90.0464 124.547 90.0464C124.237 90.0464 121.757 89.7139 119.052 89.326C114.6 88.6888 114.036 88.6334 113.473 89.0213C113.106 89.2429 112.092 90.656 111.162 92.1521C109.19 95.4492 107.217 98.109 104.85 100.658C102.145 103.595 102.145 103.235 104.991 108.942C106.513 111.935 107.358 113.957 107.217 114.096C107.048 114.234 105.301 115.481 103.329 116.922L99.7218 119.499L95.8614 115.73C93.7481 113.68 91.6911 111.907 91.2966 111.796C90.7894 111.685 89.9159 111.935 88.3379 112.655C85.2383 114.04 80.3354 115.675 77.4612 116.229C74.4462 116.811 73.6854 117.088 73.2909 117.836C73.1218 118.169 72.671 120.441 72.2765 122.879C71.882 125.317 71.5157 127.589 71.4311 127.921C71.2903 128.559 71.2339 128.559 66.5 128.559C62.2169 128.559 61.7379 128.503 61.597 128.06C61.5407 127.811 61.1462 125.539 60.7235 123.017C60.329 120.496 59.85 118.169 59.6809 117.836C59.3146 117.143 58.5256 116.783 56.215 116.368C52.6928 115.703 46.9727 113.819 43.8449 112.295C42.915 111.824 42.2388 111.658 41.7316 111.796C41.3089 111.907 39.3364 113.597 37.1386 115.73L33.2782 119.499L29.6714 116.922C27.6989 115.481 25.9519 114.234 25.7828 114.096C25.6419 113.957 26.4873 111.935 28.0089 108.942C30.8549 103.235 30.8549 103.54 28.2343 100.769C26.0083 98.4415 23.8386 95.5046 21.8379 92.1521C20.9081 90.656 19.8936 89.2429 19.5273 89.0213C18.9356 88.6334 18.4002 88.6611 14.0044 89.326C11.3557 89.7139 8.87606 90.0464 8.53792 90.0464C7.97436 90.0464 7.74894 89.5754 6.48093 85.5857C5.69195 83.1475 5.07203 81.0972 5.12839 81.0695C5.18475 81.0141 7.24174 79.9612 9.7214 78.7144C12.2011 77.4399 14.4835 76.1931 14.7653 75.9161C15.3006 75.4173 15.3006 75.2234 14.9343 70.9566C14.6244 67.2439 14.6244 65.7477 14.9343 62.0628C15.2725 57.9345 15.2725 57.602 14.8216 57.1033C14.5398 56.7985 12.2574 55.524 9.77775 54.2772C7.26992 53.0304 5.15657 51.9776 5.12839 51.9221C5.07203 51.8944 5.66377 49.8442 6.45275 47.406C7.57987 43.9427 8.00254 42.9452 8.39703 42.9452C8.65064 42.9452 11.1303 43.2777 13.8636 43.6656C19.7246 44.5245 19.64 44.5245 21.1335 41.9201C21.6407 41.0335 22.7396 39.3157 23.5568 38.0689C24.4021 36.8498 25.0784 35.5476 25.0784 35.2151C25.0784 34.3562 23.6131 32.9708 22.6833 32.9708C21.697 32.9708 20.6544 34.0791 18.7947 37.0437C18.0057 38.3182 17.2731 39.4265 17.1886 39.4819C17.0758 39.5373 14.568 39.2325 11.553 38.7892C6.65 38.0689 6.03008 38.0134 5.32564 38.4013C4.59301 38.7615 4.31123 39.4265 2.25424 45.6605C1.01441 49.4286 0 52.7811 0 53.1135C0 54.1664 0.929873 54.8591 5.63559 57.1864L10.285 59.5415V65.9971C10.3131 69.5435 10.3695 72.619 10.4258 72.8129C10.5104 73.0623 8.93242 74.032 5.77648 75.6667C0.901695 78.188 0 78.853 0 79.8781C0 80.2106 1.01441 83.5631 2.25424 87.3312C4.31123 93.5652 4.59301 94.2301 5.32564 94.5903C6.03008 94.9782 6.65 94.9228 11.5811 94.2024C16.7377 93.4266 17.0758 93.3989 17.414 93.8699C17.6112 94.1193 18.6538 95.6432 19.7246 97.2501C20.7953 98.8571 22.486 101.101 23.4722 102.237L25.2756 104.315L22.796 109.219C21.4153 111.935 20.2881 114.373 20.2881 114.65C20.2881 114.927 20.4854 115.398 20.7108 115.73C21.1053 116.285 31.3057 123.682 32.6301 124.375C33.8417 125.012 34.6871 124.458 38.7447 120.524L42.6896 116.672L44.6621 117.504C47.1981 118.584 51.0021 119.803 53.6508 120.385L55.736 120.856L56.0178 122.408C56.1587 123.267 56.5814 125.733 56.9477 127.866C57.8775 133.435 57.0604 132.992 66.5 132.992C74.0517 132.992 74.1362 132.992 74.7561 132.354C75.2915 131.856 75.5451 130.858 76.3059 126.342C76.8131 123.377 77.264 120.939 77.2922 120.939C77.3203 120.912 78.9265 120.496 80.8426 119.997C82.7869 119.526 85.6892 118.557 87.3235 117.892L90.3104 116.7L94.2553 120.524C98.2847 124.458 99.1583 125.012 100.37 124.375C101.666 123.71 111.867 116.312 112.289 115.73C112.515 115.398 112.712 114.927 112.712 114.65C112.712 114.373 111.585 111.935 110.204 109.219L107.724 104.315L109.528 102.237C110.514 101.101 112.205 98.8571 113.275 97.2501C114.346 95.6432 115.389 94.1193 115.586 93.8699C115.924 93.3989 116.262 93.4266 121.419 94.2024C126.35 94.9228 126.97 94.9782 127.674 94.5903C128.407 94.2301 128.689 93.5652 130.746 87.3312C131.986 83.5631 133 80.2106 133 79.8781C133 78.8253 132.07 78.1603 127.224 75.6667L122.461 73.2285L122.574 71.8709C122.659 71.1228 122.687 68.0474 122.687 65.0551L122.631 59.5692L127.167 57.3249C131.901 54.9699 133 54.1941 133 53.1412C133 52.8088 131.986 49.4286 130.746 45.6605C128.689 39.4265 128.407 38.7615 127.674 38.4013C126.97 38.0134 126.35 38.0689 121.419 38.7892C116.262 39.565 115.924 39.5927 115.586 39.1217C115.389 38.8723 114.346 37.3485 113.275 35.7415C112.205 34.1345 110.514 31.8903 109.528 30.7543L107.724 28.6763L110.204 23.7723C111.585 21.057 112.712 18.6188 112.712 18.3418C112.712 18.0647 112.515 17.5937 112.289 17.2612C111.867 16.6794 101.666 9.28171 100.37 8.61675C99.1583 7.9795 98.2847 8.53363 94.2553 12.468L90.3104 16.2915L87.3235 15.1001C85.6892 14.4351 82.7869 13.4654 80.8426 12.9944C78.9265 12.4957 77.3203 12.0801 77.2922 12.0524C77.264 12.0524 76.8131 9.61419 76.3059 6.64958C75.5451 2.13341 75.2915 1.13597 74.7561 0.637253C74.1362 0 74.0517 0 66.5 0C58.9483 0 58.8638 0 58.2157 0.637253Z" fill="#F505FD"/>
<path d="M4.08572 5.12561C2.67682 6.48323 3.6067 9.14307 5.49462 9.14307C6.56538 9.14307 7.88975 7.75774 7.88975 6.64947C7.88975 5.5135 6.79081 4.43295 5.63551 4.43295C5.10013 4.43295 4.50839 4.68231 4.08572 5.12561Z" fill="#F505FD"/>
<path d="M4.08572 13.9918C2.67682 15.3494 3.6067 18.0093 5.49462 18.0093C6.56538 18.0093 7.88975 16.6239 7.88975 15.5157C7.88975 14.3797 6.79081 13.2992 5.63551 13.2992C5.10013 13.2992 4.50839 13.5485 4.08572 13.9918Z" fill="#F505FD"/>
<path d="M4.08572 22.858C2.67682 24.2157 3.6067 26.8755 5.49462 26.8755C6.56538 26.8755 7.88975 25.4902 7.88975 24.3819C7.88975 23.2459 6.79081 22.1654 5.63551 22.1654C5.10013 22.1654 4.50839 22.4147 4.08572 22.858Z" fill="#F505FD"/>
<path d="M62.1324 26.7646C51.8474 28.3161 44.5775 31.7795 37.8993 38.3736C32.0665 44.1089 28.4597 50.5645 26.7126 58.544C25.811 62.6169 25.811 70.3747 26.7126 74.4476C28.4597 82.4271 32.0665 88.8827 37.8993 94.618C43.7321 100.353 50.2976 103.9 58.4129 105.618C62.555 106.504 70.4449 106.504 74.587 105.618C78.1093 104.869 81.6879 103.65 84.6465 102.182C87.2389 100.907 88.197 100.048 88.197 99.0511C88.197 98.2199 86.8163 96.696 86.0554 96.696C85.8018 96.696 84.4775 97.2501 83.1531 97.9151C77.6584 100.658 72.7836 101.794 66.4999 101.794C58.7792 101.794 52.9182 100.076 46.4936 95.9202C38.6883 90.8499 33.109 82.621 31.0802 73.1454C30.404 69.9037 30.404 63.0879 31.0802 59.8462C33.109 50.3706 38.6883 42.1417 46.4936 37.0714C52.9182 32.9154 58.7792 31.1976 66.4999 31.1976C71.2902 31.1976 73.8262 31.5855 78.1093 32.9708C88.366 36.351 97.1576 44.9678 100.567 54.9976C102.004 59.2921 102.399 61.758 102.399 66.4958C102.399 72.7852 101.243 77.523 98.2847 83.1475C96.7913 86.029 96.7067 86.8879 97.862 87.6914C98.6792 88.2455 100.201 88.2178 100.821 87.6082C101.61 86.8324 103.836 82.4271 104.794 79.7119C106.456 75.0571 106.907 72.2034 106.907 66.4958C106.907 62.2567 106.794 60.8991 106.287 58.544C104.54 50.5645 100.933 44.1089 95.1006 38.3736C89.2959 32.6661 82.6459 29.0919 74.7279 27.4018C72.0792 26.8477 64.2457 26.4598 62.1324 26.7646Z" fill="#F505FD"/>
<path d="M49.1141 60.4834C44.4365 65.0827 43.9575 65.6368 43.9575 66.4957C43.9575 67.3546 44.4365 67.9088 49.1141 72.5081C53.6789 77.0242 54.3552 77.5784 55.1724 77.5784C56.4122 77.5784 57.4829 76.5255 57.4829 75.3341C57.4829 74.5584 56.9757 73.9211 53.4817 70.4578L49.4804 66.4957L53.4817 62.5337C56.9757 59.0704 57.4829 58.4331 57.4829 57.6573C57.4829 56.4659 56.4122 55.4131 55.1724 55.4131C54.3552 55.4131 53.6789 55.9672 49.1141 60.4834Z" fill="#F505FD"/>
<path d="M67.3734 55.9118C66.8662 56.2997 66.2745 58.1838 64.3866 65.6645C63.0622 70.7625 61.9915 75.2233 61.9915 75.5835C61.9915 76.4701 63.2031 77.5784 64.1893 77.5784C65.9645 77.5784 66.0773 77.3013 68.6133 67.3269C69.9376 62.2289 71.0084 57.7682 71.0084 57.408C71.0084 55.8287 68.6696 54.859 67.3734 55.9118Z" fill="#F505FD"/>
<path d="M76.2213 56.1058C75.7704 56.5214 75.5168 57.0755 75.5168 57.6573C75.5168 58.4331 76.024 59.0704 79.5181 62.5337L83.5194 66.4957L79.5181 70.4578C76.024 73.9211 75.5168 74.5584 75.5168 75.3341C75.5168 76.5255 76.5876 77.5784 77.8274 77.5784C78.6446 77.5784 79.3209 77.0242 83.8857 72.5081C88.5632 67.9088 89.0423 67.3546 89.0423 66.4957C89.0423 65.6368 88.5632 65.0827 83.8857 60.4834C79.3209 55.9672 78.6446 55.4131 77.8274 55.4131C77.2075 55.4131 76.6721 55.6625 76.2213 56.1058Z" fill="#F505FD"/>
<path d="M92.6776 91.0161C91.0151 91.9027 90.536 93.759 91.7195 94.895C92.7339 95.9201 93.9456 95.8093 95.1291 94.6456C96.3971 93.3988 96.4252 92.3183 95.2136 91.3209C94.2555 90.5174 93.7483 90.4619 92.6776 91.0161Z" fill="#F505FD"/>
<path d="M125.983 106.56C123.87 108.305 125.758 111.353 128.35 110.383C128.914 110.162 129.618 108.832 129.618 107.945C129.618 107.169 128.181 105.839 127.364 105.839C127.082 105.839 126.462 106.172 125.983 106.56Z" fill="#F505FD"/>
<path d="M125.983 115.426C123.87 117.171 125.758 120.219 128.35 119.249C128.914 119.028 129.618 117.698 129.618 116.811C129.618 116.035 128.181 114.705 127.364 114.705C127.082 114.705 126.462 115.038 125.983 115.426Z" fill="#F505FD"/>
<path d="M125.983 124.292C123.87 126.038 125.758 129.085 128.35 128.116C128.914 127.894 129.618 126.564 129.618 125.677C129.618 124.902 128.181 123.572 127.364 123.572C127.082 123.572 126.462 123.904 125.983 124.292Z" fill="#F505FD"/>
</svg>
