<svg width="133" height="133" viewBox="0 0 133 133" fill="none" xmlns="http://www.w3.org/2000/svg">
<path d="M24.9375 4.49385C23.6646 4.90947 21.4826 7.14346 21.093 8.46826C20.8592 9.29951 20.7812 17.612 20.7812 43.6146V77.6958L21.4307 78.3192C22.2619 79.1765 23.4568 79.1765 24.2881 78.3192L24.9375 77.6958V51.3036V24.9374H66.5H108.063V51.3036V77.6958L108.712 78.3192C109.543 79.1765 110.738 79.1765 111.569 78.3192L112.219 77.6958V43.6146C112.219 17.612 112.141 9.29951 111.907 8.46826C111.491 7.03955 109.335 4.8835 107.907 4.46787C106.452 4.05225 26.3143 4.05225 24.9375 4.49385ZM107.413 8.96182C108.063 9.58525 108.063 9.58525 108.063 15.1962V20.7812H66.5H24.9375V15.1962C24.9375 9.58525 24.9375 9.58525 25.5869 8.96182L26.2104 8.3124H66.5H106.79L107.413 8.96182Z" fill="#4A6ECD"/>
<path d="M29.7432 13.1182C28.4444 14.391 29.3535 16.625 31.1719 16.625C32.2369 16.625 33.25 15.6119 33.25 14.5469C33.25 13.4818 32.2369 12.4687 31.1719 12.4687C30.6783 12.4687 30.1328 12.7025 29.7432 13.1182Z" fill="#4A6ECD"/>
<path d="M38.0556 13.1182C36.7568 14.391 37.666 16.625 39.4844 16.625C40.5494 16.625 41.5625 15.6119 41.5625 14.5469C41.5625 13.4818 40.5494 12.4687 39.4844 12.4687C38.9908 12.4687 38.4453 12.7025 38.0556 13.1182Z" fill="#4A6ECD"/>
<path d="M46.3682 13.1182C45.0694 14.391 45.9785 16.625 47.7969 16.625C48.8619 16.625 49.875 15.6119 49.875 14.5469C49.875 13.4818 48.8619 12.4687 47.7969 12.4687C47.3033 12.4687 46.7578 12.7025 46.3682 13.1182Z" fill="#4A6ECD"/>
<path d="M75.4619 13.1182C75.0463 13.5078 74.8125 14.0533 74.8125 14.5469C74.8125 15.0404 75.0463 15.5859 75.4619 15.9756L76.0854 16.625H89.3074C101.906 16.625 102.581 16.599 103.153 16.1314C104.01 15.4301 104.01 13.6637 103.153 12.9623C102.581 12.4947 101.906 12.4687 89.3074 12.4687H76.0854L75.4619 13.1182Z" fill="#4A6ECD"/>
<path d="M8.3125 16.9627C7.03964 17.3783 4.85761 19.6123 4.46797 20.9371C4.02636 22.4437 4.00039 98.0355 4.46797 99.5162C4.88359 100.945 6.36425 102.581 7.89687 103.283L9.22168 103.906H66.5H123.778L125.103 103.283C126.636 102.581 128.116 100.945 128.532 99.5162C129 98.0355 128.974 22.4437 128.532 20.9371C128.116 19.5084 125.96 17.3523 124.532 16.9367C123.934 16.7549 122.142 16.625 120.557 16.625C117.83 16.625 117.622 16.651 117.024 17.2744C116.167 18.1057 116.167 19.3006 117.024 20.1318C117.622 20.7553 117.83 20.7812 120.531 20.7812C123.233 20.7812 123.441 20.8072 124.038 21.4307L124.687 22.0541V52.6025V83.125H66.5H8.3125V52.6025V22.0541L8.96191 21.4307C9.55937 20.8072 9.76718 20.7812 12.4687 20.7812C15.1703 20.7812 15.3781 20.7553 15.9756 20.1318C16.8328 19.3006 16.8328 18.1057 15.9756 17.2744C15.3781 16.651 15.2223 16.625 12.2869 16.651C10.5984 16.677 8.80605 16.8068 8.3125 16.9627ZM124.687 92.8662C124.687 98.4771 124.687 98.4771 124.038 99.1006L123.415 99.75H66.5H9.58535L8.96191 99.1006C8.3125 98.4771 8.3125 98.4771 8.3125 92.8662V87.2812H66.5H124.687V92.8662Z" fill="#4A6ECD"/>
<path d="M61.3826 91.7492C61.0709 91.9051 60.6812 92.3467 60.4994 92.7623C60.1098 93.7234 60.6033 95.0222 61.4865 95.3599C62.3437 95.6717 71.3316 95.6717 71.9551 95.334C72.6045 94.9963 73.0201 93.6455 72.7344 92.8922C72.2408 91.5674 71.6953 91.4375 66.6299 91.4635C63.9283 91.4635 61.7203 91.5933 61.3826 91.7492Z" fill="#4A6ECD"/>
<path d="M71.4615 33.6916C71.0459 34.0293 69.2275 39.2506 64.5518 53.2519C61.0449 63.7465 58.1875 72.6045 58.1875 72.9422C58.1875 74.4228 60.3436 75.332 61.5385 74.3449C61.9541 74.0332 63.7725 68.8119 68.4482 54.8105C71.9551 44.316 74.8125 35.458 74.8125 35.1203C74.8125 33.6396 72.6564 32.7305 71.4615 33.6916Z" fill="#4A6ECD"/>
<path d="M42.4197 47.1475C38.6791 50.2906 35.6139 53.0182 35.484 53.3818C35.3281 53.7975 35.3281 54.265 35.484 54.6807C35.6139 55.0443 38.6272 57.7459 42.4197 60.915C48.1346 65.6428 49.2775 66.5 49.9789 66.5C51.1219 66.5 51.9531 65.5908 51.9531 64.3699C51.9531 63.4607 51.7453 63.2529 46.4461 58.8369C43.4068 56.2912 40.9131 54.1352 40.9131 54.0313C40.9131 53.9273 43.199 51.9531 45.9785 49.6412C48.758 47.3293 51.2518 45.1992 51.5115 44.8875C52.1609 44.1342 52.083 42.9652 51.3037 42.2119C50.0049 40.8871 49.6932 41.0689 42.4197 47.1475Z" fill="#4A6ECD"/>
<path d="M81.6963 42.212C80.9949 42.8874 80.839 44.0563 81.3845 44.7317C81.5404 44.9655 84.0342 47.0956 86.8916 49.4854C89.749 51.8493 92.0869 53.9014 92.0869 54.0313C92.0869 54.1612 89.749 56.2133 86.8916 58.5772C84.0342 60.9671 81.5404 63.0971 81.3845 63.3309C80.839 64.0063 80.9949 65.1753 81.6963 65.8506C82.9691 67.1495 83.2808 66.9936 90.6582 60.8891C94.9703 57.3044 97.49 55.0184 97.5679 54.6547C97.6719 54.3171 97.6719 53.7456 97.5679 53.4339C97.49 53.0442 94.9443 50.7583 90.6582 47.1995C83.2808 41.069 82.9951 40.8872 81.6963 42.212Z" fill="#4A6ECD"/>
<path d="M53.7455 108.296C53.3818 108.582 52.6285 109.595 52.057 110.556C51.5115 111.517 50.1867 113.232 49.1217 114.349L47.2254 116.375H45.0174C43.7965 116.375 42.3418 116.505 41.7963 116.687C40.3676 117.102 38.7311 118.583 38.0297 120.116C37.4842 121.259 37.4062 121.83 37.4062 124.506C37.4062 127.415 37.4322 127.597 38.0557 128.194L38.6791 128.844H66.5H94.3209L94.9443 128.194C95.5678 127.597 95.5938 127.389 95.5938 124.662C95.5938 120.921 95.308 119.96 93.6455 118.323C92.0869 116.739 91.0219 116.375 88.0865 116.375H85.9564L84.6316 115.128C83.073 113.699 81.3326 111.465 80.5793 110.011C79.8779 108.608 79.1246 107.985 78.1375 107.985C77.2283 107.985 76.1113 109.024 76.1113 109.907C76.1113 110.66 77.2283 112.738 78.683 114.661L79.9818 116.375H66.5H53.0182L54.317 114.661C55.7717 112.738 56.8887 110.66 56.8887 109.907C56.8887 109.205 55.8756 108.114 55.0703 107.933C54.6027 107.829 54.1871 107.933 53.7455 108.296ZM90.7881 121.181C91.3336 121.7 91.4375 122.064 91.4375 123.259V124.688H66.5H41.5625V123.259C41.5625 122.064 41.6664 121.7 42.2119 121.181L42.8354 120.531H66.5H90.1646L90.7881 121.181Z" fill="#4A6ECD"/>
</svg>
